<?xml version="1.0" encoding="UTF-8" standalone="no"?>
<!DOCTYPE svg PUBLIC "-//W3C//DTD SVG 1.1//EN" "http://www.w3.org/Graphics/SVG/1.1/DTD/svg11.dtd">
<!-- Generated by graphviz version 2.40.1 (20161225.0304)
 -->
<!-- Title: G Pages: 1 -->
<svg width="293pt" height="127pt" viewBox="0.00 0.00 292.67 127.31" xmlns="http://www.w3.org/2000/svg" xmlns:xlink="http://www.w3.org/1999/xlink">
<g id="graph0" class="graph" transform="scale(1 1) rotate(0) translate(4 123.3103)">
<title>G</title>
<polygon fill="#ffffff" stroke="transparent" points="-4,4 -4,-123.3103 288.6718,-123.3103 288.6718,4 -4,4"/>
<!-- s -->
<g id="node1" class="node">
<title>s</title>
<ellipse fill="none" stroke="#000000" cx="18" cy="-47.3103" rx="18" ry="18"/>
<text text-anchor="middle" x="18" y="-43.1103" font-family="Times,serif" font-size="14.00" fill="#000000">s</text>
</g>
<!-- x -->
<g id="node2" class="node">
<title>x</title>
<ellipse fill="none" stroke="#000000" cx="100.8906" cy="-101.3103" rx="18" ry="18"/>
<text text-anchor="middle" x="100.8906" y="-97.1103" font-family="Times,serif" font-size="14.00" fill="#000000">x</text>
</g>
<!-- s&#45;&gt;x -->
<g id="edge1" class="edge">
<title>s-&gt;x</title>
<path fill="none" stroke="#000000" d="M33.2034,-57.2148C45.4721,-65.2073 62.9526,-76.5952 77.0759,-85.796"/>
<polygon fill="#000000" stroke="#000000" points="75.4942,-88.9428 85.7836,-91.4687 79.3152,-83.0776 75.4942,-88.9428"/>
<text text-anchor="middle" x="59.4453" y="-81.5103" font-family="Times,serif" font-size="14.00" fill="#000000">/2</text>
</g>
<!-- y -->
<g id="node3" class="node">
<title>y</title>
<ellipse fill="none" stroke="#000000" cx="100.8906" cy="-47.3103" rx="18" ry="18"/>
<text text-anchor="middle" x="100.8906" y="-43.1103" font-family="Times,serif" font-size="14.00" fill="#000000">y</text>
</g>
<!-- s&#45;&gt;y -->
<g id="edge2" class="edge">
<title>s-&gt;y</title>
<path fill="none" stroke="#000000" d="M36.3961,-47.3103C47.0941,-47.3103 60.7964,-47.3103 72.8175,-47.3103"/>
<polygon fill="#000000" stroke="#000000" points="72.8311,-50.8104 82.8311,-47.3103 72.8311,-43.8104 72.8311,-50.8104"/>
<text text-anchor="middle" x="59.4453" y="-51.5103" font-family="Times,serif" font-size="14.00" fill="#000000">/2</text>
</g>
<!-- z -->
<g id="node4" class="node">
<title>z</title>
<ellipse fill="none" stroke="#000000" cx="183.7812" cy="-47.3103" rx="18" ry="18"/>
<text text-anchor="middle" x="183.7812" y="-43.1103" font-family="Times,serif" font-size="14.00" fill="#000000">z</text>
</g>
<!-- x&#45;&gt;z -->
<g id="edge3" class="edge">
<title>x-&gt;z</title>
<path fill="none" stroke="#000000" d="M116.094,-91.4059C128.3627,-83.4133 145.8432,-72.0254 159.9665,-62.8247"/>
<polygon fill="#000000" stroke="#000000" points="162.2058,-65.5431 168.6742,-57.152 158.3848,-59.6779 162.2058,-65.5431"/>
<text text-anchor="middle" x="142.3359" y="-81.5103" font-family="Times,serif" font-size="14.00" fill="#000000">/2</text>
</g>
<!-- y&#45;&gt;z -->
<g id="edge4" class="edge">
<title>y-&gt;z</title>
<path fill="none" stroke="#000000" d="M118.3465,-42.7444C124.1977,-41.4243 130.7863,-40.164 136.8906,-39.5103 143.1987,-38.8348 149.9467,-39.2683 156.3014,-40.2058"/>
<polygon fill="#000000" stroke="#000000" points="155.9983,-43.7112 166.4779,-42.1524 157.3135,-36.8358 155.9983,-43.7112"/>
<text text-anchor="middle" x="142.3359" y="-43.5103" font-family="Times,serif" font-size="14.00" fill="#000000">/2</text>
</g>
<!-- z&#45;&gt;s -->
<g id="edge5" class="edge">
<title>z-&gt;s</title>
<path fill="none" stroke="#000000" d="M170.6184,-34.9074C158.3232,-24.2399 138.9065,-9.6334 118.8906,-3.5103 103.5905,1.1701 98.1907,1.1701 82.8906,-3.5103 66.784,-8.4375 51.0655,-18.8578 39.1334,-28.2986"/>
<polygon fill="#000000" stroke="#000000" points="36.627,-25.8302 31.1628,-34.9074 41.0949,-31.2189 36.627,-25.8302"/>
<text text-anchor="middle" x="100.8906" y="-8.5103" font-family="Times,serif" font-size="14.00" fill="#000000">/1</text>
</g>
<!-- t -->
<g id="node5" class="node">
<title>t</title>
<ellipse fill="none" stroke="#000000" cx="266.6718" cy="-83.3103" rx="18" ry="18"/>
<text text-anchor="middle" x="266.6718" y="-79.1103" font-family="Times,serif" font-size="14.00" fill="#000000">t</text>
</g>
<!-- z&#45;&gt;t -->
<g id="edge6" class="edge">
<title>z-&gt;t</title>
<path fill="none" stroke="#000000" d="M200.5553,-54.5955C212.0153,-59.5726 227.4321,-66.2682 240.4958,-71.9419"/>
<polygon fill="#000000" stroke="#000000" points="239.356,-75.2627 249.9226,-76.036 242.1446,-68.8421 239.356,-75.2627"/>
<text text-anchor="middle" x="225.2265" y="-71.5103" font-family="Times,serif" font-size="14.00" fill="#000000">/3</text>
</g>
<!-- t&#45;&gt;x -->
<g id="edge7" class="edge">
<title>t-&gt;x</title>
<path fill="none" stroke="#000000" d="M248.744,-85.9376C242.9795,-86.7456 236.5613,-87.6066 230.6718,-88.3103 195.6938,-92.4897 155.3016,-96.3902 128.992,-98.8074"/>
<polygon fill="#000000" stroke="#000000" points="128.6121,-95.3274 118.9703,-99.7189 129.2462,-102.2987 128.6121,-95.3274"/>
<text text-anchor="middle" x="183.7812" y="-98.5103" font-family="Times,serif" font-size="14.00" fill="#000000">/2</text>
</g>
</g>
</svg>