<?xml version="1.0" encoding="UTF-8" standalone="no"?>
<!DOCTYPE svg PUBLIC "-//W3C//DTD SVG 1.1//EN" "http://www.w3.org/Graphics/SVG/1.1/DTD/svg11.dtd">
<!-- Generated by graphviz version 2.40.1 (20161225.0304)
 -->
<!-- Title: G Pages: 1 -->
<svg width="314pt" height="127pt" viewBox="0.00 0.00 313.67 127.04" xmlns="http://www.w3.org/2000/svg" xmlns:xlink="http://www.w3.org/1999/xlink">
<g id="graph0" class="graph" transform="scale(1 1) rotate(0) translate(4 123.0424)">
<title>G</title>
<polygon fill="#ffffff" stroke="transparent" points="-4,4 -4,-123.0424 309.6718,-123.0424 309.6718,4 -4,4"/>
<!-- s -->
<g id="node1" class="node">
<title>s</title>
<ellipse fill="none" stroke="#000000" cx="18" cy="-47.0424" rx="18" ry="18"/>
<text text-anchor="middle" x="18" y="-42.8424" font-family="Times,serif" font-size="14.00" fill="#000000">s</text>
</g>
<!-- x -->
<g id="node2" class="node">
<title>x</title>
<ellipse fill="none" stroke="#000000" cx="107.8906" cy="-101.0424" rx="18" ry="18"/>
<text text-anchor="middle" x="107.8906" y="-96.8424" font-family="Times,serif" font-size="14.00" fill="#000000">x</text>
</g>
<!-- s&#45;&gt;x -->
<g id="edge1" class="edge">
<title>s-&gt;x</title>
<path fill="none" stroke="#000000" d="M33.6577,-56.4485C47.4497,-64.7337 67.7587,-76.9339 83.6493,-86.4799"/>
<polygon fill="#000000" stroke="#000000" points="82.0377,-89.5948 92.4123,-91.7441 85.6425,-83.5942 82.0377,-89.5948"/>
<text text-anchor="middle" x="62.9453" y="-82.2424" font-family="Times,serif" font-size="14.00" fill="#000000">1/2</text>
</g>
<!-- y -->
<g id="node3" class="node">
<title>y</title>
<ellipse fill="none" stroke="#000000" cx="107.8906" cy="-47.0424" rx="18" ry="18"/>
<text text-anchor="middle" x="107.8906" y="-42.8424" font-family="Times,serif" font-size="14.00" fill="#000000">y</text>
</g>
<!-- s&#45;&gt;y -->
<g id="edge2" class="edge">
<title>s-&gt;y</title>
<path fill="none" stroke="#000000" d="M36.1907,-47.0424C48.6185,-47.0424 65.3371,-47.0424 79.5041,-47.0424"/>
<polygon fill="#000000" stroke="#000000" points="79.727,-50.5425 89.7269,-47.0424 79.7269,-43.5425 79.727,-50.5425"/>
<text text-anchor="middle" x="62.9453" y="-51.2424" font-family="Times,serif" font-size="14.00" fill="#000000">2/2</text>
</g>
<!-- z -->
<g id="node4" class="node">
<title>z</title>
<ellipse fill="none" stroke="#000000" cx="197.7812" cy="-47.0424" rx="18" ry="18"/>
<text text-anchor="middle" x="197.7812" y="-42.8424" font-family="Times,serif" font-size="14.00" fill="#000000">z</text>
</g>
<!-- x&#45;&gt;z -->
<g id="edge3" class="edge">
<title>x-&gt;z</title>
<path fill="none" stroke="#000000" d="M123.2948,-91.687C129.6648,-87.8254 137.1286,-83.3099 143.8906,-79.2424 153.5569,-73.4279 164.2159,-67.0516 173.4848,-61.5183"/>
<polygon fill="#000000" stroke="#000000" points="175.4072,-64.447 182.2021,-56.318 171.821,-58.4354 175.4072,-64.447"/>
<text text-anchor="middle" x="152.8359" y="-83.2424" font-family="Times,serif" font-size="14.00" fill="#000000">1/2</text>
</g>
<!-- y&#45;&gt;z -->
<g id="edge4" class="edge">
<title>y-&gt;z</title>
<path fill="none" stroke="#000000" d="M125.3465,-42.4764C131.1977,-41.1564 137.7863,-39.8961 143.8906,-39.2424 151.7968,-38.3957 153.875,-38.3957 161.7812,-39.2424 164.5472,-39.5386 167.4127,-39.9594 170.2639,-40.4538"/>
<polygon fill="#000000" stroke="#000000" points="169.8316,-43.9368 180.3253,-42.4764 171.2113,-37.0741 169.8316,-43.9368"/>
<text text-anchor="middle" x="152.8359" y="-43.2424" font-family="Times,serif" font-size="14.00" fill="#000000">2/2</text>
</g>
<!-- z&#45;&gt;s -->
<g id="edge5" class="edge">
<title>z-&gt;s</title>
<path fill="none" stroke="#000000" d="M184.0159,-35.4437C170.2972,-24.7037 148.1234,-9.4818 125.8906,-3.2424 110.4857,1.0808 105.2955,1.0808 89.8906,-3.2424 71.6527,-8.3606 53.4546,-19.5234 39.9308,-29.2982"/>
<polygon fill="#000000" stroke="#000000" points="37.6506,-26.6338 31.7653,-35.4437 41.86,-32.2267 37.6506,-26.6338"/>
<text text-anchor="middle" x="107.8906" y="-8.2424" font-family="Times,serif" font-size="14.00" fill="#000000">1/1</text>
</g>
<!-- t -->
<g id="node5" class="node">
<title>t</title>
<ellipse fill="none" stroke="#000000" cx="287.6718" cy="-83.0424" rx="18" ry="18"/>
<text text-anchor="middle" x="287.6718" y="-78.8424" font-family="Times,serif" font-size="14.00" fill="#000000">t</text>
</g>
<!-- z&#45;&gt;t -->
<g id="edge6" class="edge">
<title>z-&gt;t</title>
<path fill="none" stroke="#000000" d="M214.6889,-53.8137C227.8722,-59.0934 246.4138,-66.5191 261.5089,-72.5645"/>
<polygon fill="#000000" stroke="#000000" points="260.2554,-75.8327 270.8399,-76.3014 262.8579,-69.3344 260.2554,-75.8327"/>
<text text-anchor="middle" x="242.7265" y="-72.2424" font-family="Times,serif" font-size="14.00" fill="#000000">2/3</text>
</g>
<!-- t&#45;&gt;x -->
<g id="edge7" class="edge">
<title>t-&gt;x</title>
<path fill="none" stroke="#000000" d="M269.7688,-86.3231C264.0056,-87.2995 257.582,-88.3045 251.6718,-89.0424 211.7792,-94.023 165.3936,-97.4752 136.3362,-99.3577"/>
<polygon fill="#000000" stroke="#000000" points="135.8581,-95.8808 126.0978,-100.0023 136.298,-102.867 135.8581,-95.8808"/>
<text text-anchor="middle" x="197.7812" y="-99.2424" font-family="Times,serif" font-size="14.00" fill="#000000">1/2</text>
</g>
</g>
</svg>