<?xml version="1.0" encoding="UTF-8" standalone="no"?>
<!DOCTYPE svg PUBLIC "-//W3C//DTD SVG 1.1//EN" "http://www.w3.org/Graphics/SVG/1.1/DTD/svg11.dtd">
<!-- Generated by graphviz version 2.40.1 (20161225.0304)
 -->
<!-- Title: G Pages: 1 -->
<svg width="493pt" height="138pt" viewBox="0.00 0.00 493.45 137.80" xmlns="http://www.w3.org/2000/svg" xmlns:xlink="http://www.w3.org/1999/xlink">
<g id="graph0" class="graph" transform="scale(1 1) rotate(0) translate(4 133.8)">
<title>G</title>
<polygon fill="#ffffff" stroke="transparent" points="-4,4 -4,-133.8 489.453,-133.8 489.453,4 -4,4"/>
<!-- s -->
<g id="node1" class="node">
<title>s</title>
<ellipse fill="none" stroke="#000000" cx="18" cy="-34" rx="18" ry="18"/>
<text text-anchor="middle" x="18" y="-29.8" font-family="Times,serif" font-size="14.00" fill="#000000">s</text>
</g>
<!-- x -->
<g id="node2" class="node">
<title>x</title>
<ellipse fill="none" stroke="#000000" cx="107.8906" cy="-64" rx="18" ry="18"/>
<text text-anchor="middle" x="107.8906" y="-59.8" font-family="Times,serif" font-size="14.00" fill="#000000">x</text>
</g>
<!-- s&#45;&gt;x -->
<g id="edge1" class="edge">
<title>s-&gt;x</title>
<path fill="none" stroke="#000000" d="M35.3318,-39.7843C48.2648,-44.1006 66.1783,-50.079 80.9699,-55.0155"/>
<polygon fill="#000000" stroke="#000000" points="80.0183,-58.3876 90.612,-58.2335 82.2343,-51.7477 80.0183,-58.3876"/>
<text text-anchor="middle" x="62.9453" y="-55.2" font-family="Times,serif" font-size="14.00" fill="#000000">4/8</text>
</g>
<!-- u -->
<g id="node4" class="node">
<title>u</title>
<ellipse fill="none" stroke="#000000" cx="287.6718" cy="-18" rx="18" ry="18"/>
<text text-anchor="middle" x="287.6718" y="-13.8" font-family="Times,serif" font-size="14.00" fill="#000000">u</text>
</g>
<!-- s&#45;&gt;u -->
<g id="edge2" class="edge">
<title>s-&gt;u</title>
<path fill="none" stroke="#000000" d="M36.1127,-32.9254C82.1691,-30.1928 204.0199,-22.9632 259.4745,-19.673"/>
<polygon fill="#000000" stroke="#000000" points="259.8629,-23.1562 269.638,-19.07 259.4482,-16.1685 259.8629,-23.1562"/>
<text text-anchor="middle" x="152.8359" y="-31.2" font-family="Times,serif" font-size="14.00" fill="#000000">2/2</text>
</g>
<!-- y -->
<g id="node3" class="node">
<title>y</title>
<ellipse fill="none" stroke="#000000" cx="197.7812" cy="-110" rx="18" ry="18"/>
<text text-anchor="middle" x="197.7812" y="-105.8" font-family="Times,serif" font-size="14.00" fill="#000000">y</text>
</g>
<!-- x&#45;&gt;y -->
<g id="edge3" class="edge">
<title>x-&gt;y</title>
<path fill="none" stroke="#000000" d="M123.9612,-72.2239C137.4272,-79.1149 156.8901,-89.0747 172.4507,-97.0375"/>
<polygon fill="#000000" stroke="#000000" points="171.0501,-100.2524 181.5466,-101.6922 174.2389,-94.0209 171.0501,-100.2524"/>
<text text-anchor="middle" x="152.8359" y="-95.2" font-family="Times,serif" font-size="14.00" fill="#000000">6/6</text>
</g>
<!-- y&#45;&gt;u -->
<g id="edge4" class="edge">
<title>y-&gt;u</title>
<path fill="none" stroke="#000000" d="M214.9096,-104.0852C226.371,-99.4623 241.214,-92.1162 251.6718,-82 262.6243,-71.4053 271.1974,-56.7515 277.2253,-44.1389"/>
<polygon fill="#000000" stroke="#000000" points="280.4288,-45.5488 281.336,-34.9929 274.0441,-42.6792 280.4288,-45.5488"/>
<text text-anchor="middle" x="242.7265" y="-98.2" font-family="Times,serif" font-size="14.00" fill="#000000">2/2</text>
</g>
<!-- t -->
<g id="node6" class="node">
<title>t</title>
<ellipse fill="none" stroke="#000000" cx="467.453" cy="-100" rx="18" ry="18"/>
<text text-anchor="middle" x="467.453" y="-95.8" font-family="Times,serif" font-size="14.00" fill="#000000">t</text>
</g>
<!-- y&#45;&gt;t -->
<g id="edge5" class="edge">
<title>y-&gt;t</title>
<path fill="none" stroke="#000000" d="M215.6756,-112.9814C221.4384,-113.8083 227.8639,-114.591 233.7812,-115 241.7137,-115.5482 243.7229,-115.1988 251.6718,-115 331.6496,-112.9994 351.9127,-114.5904 431.453,-106 434.0437,-105.7202 436.7311,-105.3755 439.4172,-104.9939"/>
<polygon fill="#000000" stroke="#000000" points="440.2286,-108.4094 449.5637,-103.3989 439.1415,-101.4943 440.2286,-108.4094"/>
<text text-anchor="middle" x="332.6171" y="-117.2" font-family="Times,serif" font-size="14.00" fill="#000000">2/4</text>
</g>
<!-- z -->
<g id="node5" class="node">
<title>z</title>
<ellipse fill="none" stroke="#000000" cx="377.5624" cy="-64" rx="18" ry="18"/>
<text text-anchor="middle" x="377.5624" y="-59.8" font-family="Times,serif" font-size="14.00" fill="#000000">z</text>
</g>
<!-- u&#45;&gt;z -->
<g id="edge6" class="edge">
<title>u-&gt;z</title>
<path fill="none" stroke="#000000" d="M305.8878,-21.089C316.697,-23.4114 330.4199,-27.2379 341.5624,-33.2 347.0447,-36.1334 352.4283,-40.0201 357.2935,-44.0412"/>
<polygon fill="#000000" stroke="#000000" points="355.1102,-46.7828 364.9177,-50.7908 359.7502,-41.5416 355.1102,-46.7828"/>
<text text-anchor="middle" x="332.6171" y="-38.2" font-family="Times,serif" font-size="14.00" fill="#000000">4/5</text>
</g>
<!-- z&#45;&gt;x -->
<g id="edge7" class="edge">
<title>z-&gt;x</title>
<path fill="none" stroke="#000000" d="M359.2176,-63.4642C334.7088,-62.7776 289.9269,-61.6254 251.6718,-61.2 211.6036,-60.7545 165.2626,-61.9681 136.2629,-62.9357"/>
<polygon fill="#000000" stroke="#000000" points="135.9193,-59.4454 126.0469,-63.2905 136.1623,-66.4412 135.9193,-59.4454"/>
<text text-anchor="middle" x="242.7265" y="-65.2" font-family="Times,serif" font-size="14.00" fill="#000000">2/3</text>
</g>
<!-- z&#45;&gt;t -->
<g id="edge8" class="edge">
<title>z-&gt;t</title>
<path fill="none" stroke="#000000" d="M394.4701,-70.7713C407.6534,-76.051 426.195,-83.4767 441.2901,-89.5221"/>
<polygon fill="#000000" stroke="#000000" points="440.0366,-92.7903 450.6211,-93.259 442.6391,-86.292 440.0366,-92.7903"/>
<text text-anchor="middle" x="422.5077" y="-89.2" font-family="Times,serif" font-size="14.00" fill="#000000">2/5</text>
</g>
</g>
</svg>